<!-- Learn about this code on MDN: https://developer.mozilla.org/en-US/docs/Web/SVG/Element/animateTransform -->

<svg id="svg3775" xmlns:rdf="http://www.w3.org/1999/02/22-rdf-syntax-ns#" xmlns="http://www.w3.org/2000/svg" height="115.44mm" width="115.44mm" version="1.1" xmlns:cc="http://creativecommons.org/ns#" xmlns:dc="http://purl.org/dc/elements/1.1/" viewBox="0 0 409.04568 409.0457">
 <metadata id="metadata3780">
  <rdf:RDF>
   <cc:Work rdf:about="">
    <dc:format>image/svg+xml</dc:format>
    <dc:type rdf:resource="http://purl.org/dc/dcmitype/StillImage"/>
    <dc:title/>
   </cc:Work>
  </rdf:RDF>
 </metadata>
 <g id="layer1" transform="translate(-132.62 -196.41)">
  <g id="g3476" style="" transform="translate(-18.541 -51.549)">
   <path id="path3490" fill="#fbe240" d="m331.16 655.63c-30.624-3.4178-62.319-15.371-90.461-34.117-9.2117-6.1359-27.202-20.959-27.978-23.052-0.173-0.46664 15.577-16.724 35-36.128l35.315-35.28 8.1337 6.5359c15.559 12.502 35.025 20.502 53.556 22.009l9.5608 0.77726 0.32667 50.312 0.32669 50.312-7.2017-0.16218c-3.9609-0.0892-11.42-0.63298-16.577-1.2084zm26.25-48.496c0-55.417-0.67909-51.384 8.6523-51.384 13.852 0 38.225-9.8891 53.543-21.724l8.7282-6.7438 35.295 35.311 35.295 35.311-6.2136 5.8121c-30.481 28.512-73.316 47.645-116.37 51.98-7.1197 0.71689-14.292 1.3034-15.938 1.3034h-2.9926v-49.866zm-154.43-18.59c-23.12-26.248-38.465-55.609-46.202-88.408-3.6122-15.312-5.9825-33.092-5.4156-40.625l0.42329-5.625h50 50l0.80183 8.75c1.7772 19.394 9.6596 39.033 21.659 53.964l6.8606 8.5364-35.278 35.312c-19.403 19.422-35.563 35.299-35.911 35.283-0.34828-0.016-3.4707-3.2504-6.9387-7.1875zm262.36-28.115-35.14-35.293 6.201-7.5c11.67-14.114 20.01-34.95 22.893-57.188l0.76961-5.9375h50.071 50.071l-0.85054 10.938c-3.1929 41.059-16.419 76.972-40.165 109.06-4.3243 5.8438-10.303 13.007-13.286 15.918l-5.4238 5.2931-35.14-35.293zm-314.17-113.73c0.0324-16.803 5.6304-45.31 12.703-64.688 8.6808-23.784 23.993-49.012 40.093-66.058l6.312-6.6826 35.365 35.349 35.365 35.349-5.0573 6.0404c-11.819 14.116-21.282 35.749-22.905 52.359-0.43079 4.41-1.0424 9.2837-1.3591 10.831l-0.57587 2.8125h-49.976-49.976l0.0102-5.3125zm308.28 1.25c-0.41455-1.5469-0.76141-4.5506-0.7708-6.675-0.058-13.131-11.259-40.146-22.299-53.784l-6.1905-7.6468 35.199-35.183 35.199-35.183 6.3461 6.5799c22.347 23.171 41.385 60.413 48.429 94.741 1.7354 8.4569 4.5488 31.71 4.5488 37.596 0 2.2838-1.763 2.3676-49.854 2.3676h-49.854l-0.75371-2.8125zm-211.99-105.27l-35.307-35.323 6.2136-5.8121c24.487-22.905 56.845-39.74 92.644-48.199 12.141-2.8692 38.821-5.8639 41.858-4.6985 1.8941 0.72684 2.0473 5.1514 1.7491 50.518l-0.32687 49.721-9.375 0.80077c-20.829 1.7791-38.483 9.0405-55.319 22.754l-6.83 5.5631-35.307-35.323zm177.55 32.555c-4.6765-4.9779-19.153-14.185-28.671-18.236-11.182-4.7584-22.602-7.4465-31.735-7.47l-7.1875-0.0185v-50.773-50.773l10.938 0.85054c24.649 1.9168 45.781 7.0218 67.395 16.281 21.503 9.2116 46.073 25.147 58.208 37.753l4.6655 4.8465-35.343 35.327-35.343 35.327-2.9265-3.1152z"/>
   <path id="path3488" fill="#fd69b3" d="m331.16 655.63c-30.624-3.4178-62.319-15.371-90.461-34.117-9.2117-6.1359-27.202-20.959-27.978-23.052-0.173-0.46664 15.577-16.724 35-36.128l35.315-35.28 8.1337 6.5359c15.559 12.502 35.025 20.502 53.556 22.009l9.5608 0.77726 0.32667 50.312 0.32669 50.312-7.2017-0.16218c-3.9609-0.0892-11.42-0.63298-16.577-1.2084zm-128.18-67.09c-23.12-26.248-38.465-55.609-46.202-88.408-3.6122-15.312-5.9825-33.092-5.4156-40.625l0.42329-5.625h50 50l0.80183 8.75c1.7772 19.394 9.6596 39.033 21.659 53.964l6.8606 8.5364-35.278 35.312c-19.403 19.422-35.563 35.299-35.911 35.283-0.34828-0.016-3.4707-3.2504-6.9387-7.1875zm262.36-28.115-35.14-35.293 6.201-7.5c11.67-14.114 20.01-34.95 22.893-57.188l0.76961-5.9375h50.071 50.071l-0.85054 10.938c-3.1929 41.059-16.419 76.972-40.165 109.06-4.3243 5.8438-10.303 13.007-13.286 15.918l-5.4238 5.2931-35.14-35.293zm-314.17-113.73c0.0324-16.803 5.6304-45.31 12.703-64.688 8.6808-23.784 23.993-49.012 40.093-66.058l6.312-6.6826 35.365 35.349 35.365 35.349-5.0573 6.0404c-11.819 14.116-21.282 35.749-22.905 52.359-0.43079 4.41-1.0424 9.2837-1.3591 10.831l-0.57587 2.8125h-49.976-49.976l0.0102-5.3125zm96.44-103.86-35.23-35.25 6.58-6.35c28.591-27.575 74.262-47.61 117.83-51.689 7.5625-0.70802 14.453-1.2878 15.312-1.2884 1.224-0.00081 1.5625 10.832 1.5625 49.999 0 39.146-0.33919 50.008-1.5625 50.039-21.029 0.51942-48.011 11.025-63.532 24.737l-5.7192 5.0525-35.236-35.252zm177.39 32.398c-4.6765-4.9779-19.153-14.185-28.671-18.236-11.182-4.7584-22.602-7.4465-31.735-7.47l-7.1875-0.0185v-50.773-50.773l10.938 0.85054c24.649 1.9168 45.781 7.0218 67.395 16.281 21.503 9.2116 46.073 25.147 58.208 37.753l4.6655 4.8465-35.343 35.327-35.343 35.327-2.9265-3.1152z"/>
   <path id="path3486" fill="#6cbdec" d="m343.04 656.16c-45.931-2.8818-92.019-22.387-124.76-52.799l-6.0064-5.5797 35.348-35.364 35.348-35.364 3.7835 3.5729c4.5779 4.3232 16.852 12.611 24.006 16.209 7.4302 3.7371 25.306 8.7104 34.808 9.6839l8.0945 0.82931v49.827c0 46.707-0.13699 49.813-2.1875 49.602-1.2031-0.12388-5-0.40178-8.4375-0.61744zm-140.06-67.62c-23.12-26.248-38.465-55.609-46.202-88.408-3.6122-15.312-5.9825-33.092-5.4156-40.625l0.42329-5.625h50 50l0.80183 8.75c1.7772 19.394 9.6596 39.033 21.659 53.964l6.8606 8.5364-35.278 35.312c-19.403 19.422-35.563 35.299-35.911 35.283-0.34828-0.016-3.4707-3.2504-6.9387-7.1875zm-51.09-146.22c2.4858-33.039 9.0215-56.779 23.163-84.139 7.6366-14.775 20.792-33.645 30.244-43.383l5.178-5.3348 35.257 35.241 35.257 35.241-5.0525 5.7192c-12.135 13.737-21.081 34.292-23.841 54.782l-1.3891 10.312h-49.725-49.725l0.63484-8.4375zm95.722-99.486-35.236-35.252 6.5799-6.3461c28.591-27.575 74.262-47.61 117.83-51.689 7.5625-0.70802 14.453-1.2878 15.312-1.2884 1.224-0.00081 1.5625 10.832 1.5625 49.999 0 39.146-0.33919 50.008-1.5625 50.039-21.029 0.51942-48.011 11.025-63.532 24.737l-5.7192 5.0525-35.236-35.252zm177.39 32.398c-4.6765-4.9779-19.153-14.185-28.671-18.236-11.182-4.7584-22.602-7.4465-31.735-7.47l-7.1875-0.0185v-50.773-50.773l10.938 0.85054c24.649 1.9168 45.781 7.0218 67.395 16.281 21.503 9.2116 46.073 25.147 58.208 37.753l4.6655 4.8465-35.343 35.327-35.343 35.327-2.9265-3.1152z"/>
   <path id="path3484" fill="#6bbf25" d="m343.04 656.16c-45.931-2.8818-92.019-22.387-124.76-52.799l-6.0064-5.5797 35.348-35.364 35.348-35.364 3.7835 3.5729c4.5779 4.3232 16.852 12.611 24.006 16.209 7.4302 3.7371 25.306 8.7104 34.808 9.6839l8.0945 0.82931v49.827c0 46.707-0.13699 49.813-2.1875 49.602-1.2031-0.12388-5-0.40178-8.4375-0.61744zm-138.24-66.27c-30.853-33.213-49.518-77.541-52.924-125.69l-0.68527-9.6875h49.757 49.757l1.425 10.65c2.6459 19.775 11.892 40.91 23.818 54.444l5.0397 5.7192-35.304 35.287-35.304 35.287-5.5797-6.0064zm-52.91-147.57c2.4858-33.039 9.0215-56.779 23.163-84.139 7.6366-14.775 20.792-33.645 30.244-43.383l5.178-5.3348 35.257 35.241 35.257 35.241-5.0525 5.7192c-12.135 13.737-21.081 34.292-23.841 54.782l-1.3891 10.312h-49.725-49.725l0.63484-8.4375zm95.722-99.486-35.236-35.252 6.5799-6.3461c28.591-27.575 74.262-47.61 117.83-51.689 7.5625-0.70802 14.453-1.2878 15.312-1.2884 1.224-0.00081 1.5625 10.832 1.5625 49.999 0 39.146-0.33919 50.008-1.5625 50.039-21.029 0.51942-48.011 11.025-63.532 24.737l-5.7192 5.0525-35.236-35.252z"/>
   <path id="path3482" fill="#a54662" d="m343.04 656.16c-45.931-2.8818-92.019-22.387-124.76-52.799l-6.0064-5.5797 35.348-35.364 35.348-35.364 3.7835 3.5729c4.5779 4.3232 16.852 12.611 24.006 16.209 7.4302 3.7371 25.306 8.7104 34.808 9.6839l8.0945 0.82931v49.827c0 46.707-0.13699 49.813-2.1875 49.602-1.2031-0.12388-5-0.40178-8.4375-0.61744zm-138.24-66.27c-30.853-33.213-49.518-77.541-52.924-125.69l-0.68527-9.6875h49.757 49.757l1.425 10.65c2.6459 19.775 11.892 40.91 23.818 54.444l5.0397 5.7192-35.304 35.287-35.304 35.287-5.5797-6.0064zm-52.91-147.57c2.4858-33.039 9.0215-56.779 23.163-84.139 7.6366-14.775 20.792-33.645 30.244-43.383l5.178-5.3348 35.257 35.241 35.257 35.241-5.0525 5.7192c-12.135 13.737-21.081 34.292-23.841 54.782l-1.3891 10.312h-49.725-49.725l0.63484-8.4375z"/>
   <path id="path3480" fill="#fe0000" d="m338.04 655.67c-43.032-3.3755-86.153-22.131-119.16-51.83l-6.6618-5.9938 35.318-35.334 35.318-35.334 5.7192 5.0525c13.759 12.155 37.41 22.373 56.032 24.206l9.0625 0.89224v49.838c0 39.132-0.33565 49.8-1.5625 49.661-0.85938-0.0979-7.1875-0.61918-14.062-1.1585zm-133.24-65.78c-30.853-33.213-49.518-77.541-52.924-125.69l-0.68527-9.6875h49.757 49.757l1.425 10.65c2.6459 19.775 11.892 40.91 23.818 54.444l5.0397 5.7192-35.304 35.287-35.304 35.287-5.5797-6.0064z"/>
   <path id="path3478" fill="#0000c7" d="m204.8 589.89c-30.853-33.213-49.518-77.541-52.924-125.69l-0.68527-9.6875h49.757 49.757l1.425 10.65c2.6459 19.775 11.892 40.91 23.818 54.444l5.0397 5.7192-35.304 35.287-35.304 35.287-5.5797-6.0064z"/>
  </g>

 </g>
  <animateTransform attributeName="transform"
                          attributeType="XML"
                          type="rotate"
                          from="0 0 0"
                          to="360 0 0"
                          dur="5s"
                          repeatCount="indefinite"/>
</svg>
